<svg width="28" height="27" viewBox="0 0 28 27" fill="none" xmlns="http://www.w3.org/2000/svg">
<path d="M11.1364 11.9302C12.0151 11.9302 12.7273 12.633 12.7273 13.5V19.1512C12.7273 20.0182 12.0151 20.7209 11.1364 20.7209C10.2577 20.7209 9.54545 20.0182 9.54545 19.1512V13.5C9.54545 12.633 10.2577 11.9302 11.1364 11.9302Z" fill="#5B5B5B"/>
<path d="M16.8636 11.9302C17.7423 11.9302 18.4545 12.633 18.4545 13.5V19.1512C18.4545 20.0182 17.7423 20.7209 16.8636 20.7209C15.9849 20.7209 15.2727 20.0182 15.2727 19.1512V13.5C15.2727 12.633 15.9849 11.9302 16.8636 11.9302Z" fill="#5B5B5B"/>
<path fill-rule="evenodd" clip-rule="evenodd" d="M9.54545 0C8.13964 0 7 1.12449 7 2.51163V5.65116H1.59091C0.712269 5.65116 0 6.35397 0 7.22093C0 8.08789 0.712269 8.7907 1.59091 8.7907H3.36899L4.3136 24.6358C4.39275 25.9634 5.50691 27 6.85467 27H21.1453C22.493 27 23.6073 25.9634 23.6863 24.6358L24.631 8.7907H26.4091C27.2878 8.7907 28 8.08789 28 7.22093C28 6.35397 27.2878 5.65116 26.4091 5.65116H21V2.51163C21 1.12449 19.8604 0 18.4545 0H9.54545ZM6.5563 8.7907L7.45469 23.8605H20.5453L21.4437 8.7907H6.5563ZM10.1818 5.65116V3.13953H17.8182V5.65116H10.1818Z" fill="#5B5B5B"/>
</svg>
