<svg width="36" height="37" viewBox="0 0 36 37" fill="none" xmlns="http://www.w3.org/2000/svg">
<path d="M15.4999 34.4306C15.4999 35.8495 16.6193 37 17.9999 37C19.3808 37 20.5 35.8495 20.5 34.4306V21.0694H33.5C34.8808 21.0694 36 19.919 36 18.5C36 17.0808 34.8808 15.9306 33.5 15.9306H20.5V2.56944C20.5 1.15039 19.3808 0 17.9999 0C16.6193 0 15.4999 1.15037 15.4999 2.56944V15.9306H2.50001C1.1193 15.9306 0 17.0808 0 18.5C0 19.919 1.1193 21.0694 2.50001 21.0694H15.4999V34.4306Z" fill="black"/>
</svg>
