<svg width="29" height="16" viewBox="0 0 29 16" fill="none" xmlns="http://www.w3.org/2000/svg">
<path d="M3.71844 0.612036L14.5 10.9553L25.2816 0.612036C26.1322 -0.204008 27.5114 -0.204008 28.362 0.612036C29.2127 1.4281 29.2127 2.75117 28.362 3.56717L16.0403 15.388C15.6316 15.7798 15.0777 16 14.5 16C13.9224 16 13.3682 15.7798 12.9598 15.388L0.637987 3.56717C0.531656 3.46519 0.43862 3.35536 0.358863 3.23934C-0.199368 2.42833 -0.106333 1.32609 0.637987 0.612036C0.744318 0.510029 0.85891 0.420777 0.979687 0.344279C1.82516 -0.191269 2.97412 -0.102001 3.71844 0.612036Z" fill="black" fill-opacity="0.58"/>
</svg>
