<svg width="22" height="23" viewBox="0 0 22 23" fill="none" xmlns="http://www.w3.org/2000/svg">
<path id="Vector" d="M9.47219 21.4028C9.47219 22.2848 10.1563 23 11 23C11.8438 23 12.5278 22.2848 12.5278 21.4028V13.0972H20.4722C21.316 13.0972 22 12.3821 22 11.5C22 10.6178 21.316 9.90278 20.4722 9.90278H12.5278V1.59722C12.5278 0.715108 11.8438 0 11 0C10.1563 0 9.47219 0.715096 9.47219 1.59722V9.90278H1.52778C0.684018 9.90278 0 10.6178 0 11.5C0 12.3821 0.684018 13.0972 1.52778 13.0972H9.47219V21.4028Z" fill="black"/>
</svg>
