<svg width="29" height="21" viewBox="0 0 29 21" fill="none" xmlns="http://www.w3.org/2000/svg">
<path d="M0 1.94444C0 0.870551 0.901658 0 2.01389 0H26.9861C28.0983 0 29 0.870551 29 1.94444C29 3.01834 28.0983 3.88889 26.9861 3.88889H2.01389C0.901642 3.88889 0 3.01834 0 1.94444Z" fill="black"/>
<path d="M2.01389 8.55556C0.901658 8.55556 0 9.42604 0 10.5C0 11.5738 0.901642 12.4444 2.01389 12.4444H26.9861C28.0983 12.4444 29 11.5738 29 10.5C29 9.42604 28.0983 8.55556 26.9861 8.55556H2.01389Z" fill="black"/>
<path d="M0 19.0556C0 17.9816 0.901658 17.1111 2.01389 17.1111H26.9861C28.0983 17.1111 29 17.9816 29 19.0556C29 20.1295 28.0983 21 26.9861 21H2.01389C0.901642 21 0 20.1295 0 19.0556Z" fill="black"/>
</svg>
